<mxfile host="65bd71144e">
    <diagram id="bMe4YVhb9reRb_mZhYj2" name="Page-1">
        <mxGraphModel dx="593" dy="1050" grid="1" gridSize="10" guides="1" tooltips="1" connect="1" arrows="1" fold="1" page="1" pageScale="1" pageWidth="1169" pageHeight="827" math="0" shadow="0">
            <root>
                <mxCell id="0"/>
                <mxCell id="1" parent="0"/>
                <mxCell id="lsiEjuy3HhXpgUigyZ6E-1" value="" style="endArrow=none;html=1;rounded=0;strokeWidth=3;fontSize=14;" parent="1" target="lsiEjuy3HhXpgUigyZ6E-5" edge="1">
                    <mxGeometry width="50" height="50" relative="1" as="geometry">
                        <mxPoint x="400" y="680" as="sourcePoint"/>
                        <mxPoint x="400" y="120" as="targetPoint"/>
                    </mxGeometry>
                </mxCell>
                <mxCell id="lsiEjuy3HhXpgUigyZ6E-2" value="" style="endArrow=none;html=1;rounded=0;strokeWidth=3;fontSize=14;" parent="1" target="lsiEjuy3HhXpgUigyZ6E-4" edge="1">
                    <mxGeometry width="50" height="50" relative="1" as="geometry">
                        <mxPoint x="120" y="680" as="sourcePoint"/>
                        <mxPoint x="120" y="120" as="targetPoint"/>
                    </mxGeometry>
                </mxCell>
                <mxCell id="lsiEjuy3HhXpgUigyZ6E-3" value="" style="endArrow=none;html=1;rounded=0;strokeWidth=3;fontSize=14;" parent="1" target="lsiEjuy3HhXpgUigyZ6E-6" edge="1">
                    <mxGeometry width="50" height="50" relative="1" as="geometry">
                        <mxPoint x="680" y="680" as="sourcePoint"/>
                        <mxPoint x="680" y="120" as="targetPoint"/>
                    </mxGeometry>
                </mxCell>
                <mxCell id="lsiEjuy3HhXpgUigyZ6E-4" value="&lt;div&gt;Facebook User &lt;/div&gt;(Resource Owner)" style="rounded=0;whiteSpace=wrap;html=1;fontSize=14;" parent="1" vertex="1">
                    <mxGeometry x="60" y="60" width="120" height="60" as="geometry"/>
                </mxCell>
                <mxCell id="lsiEjuy3HhXpgUigyZ6E-5" value="&lt;div style=&quot;font-size: 14px;&quot;&gt;GraphApp&lt;/div&gt;(Client, Native&lt;br&gt;&amp;nbsp;App)" style="rounded=0;whiteSpace=wrap;html=1;fontSize=14;" parent="1" vertex="1">
                    <mxGeometry x="340" y="60" width="120" height="60" as="geometry"/>
                </mxCell>
                <mxCell id="lsiEjuy3HhXpgUigyZ6E-6" value="&lt;div style=&quot;font-size: 14px;&quot;&gt;Browser&lt;/div&gt;&lt;div style=&quot;font-size: 14px;&quot;&gt;(User Agent)&lt;br style=&quot;font-size: 14px;&quot;&gt;&lt;/div&gt;" style="rounded=0;whiteSpace=wrap;html=1;fontSize=14;" parent="1" vertex="1">
                    <mxGeometry x="620" y="60" width="120" height="60" as="geometry"/>
                </mxCell>
                <mxCell id="lsiEjuy3HhXpgUigyZ6E-7" value="" style="endArrow=none;html=1;rounded=0;strokeWidth=3;fontSize=14;startArrow=none;" parent="1" source="lsiEjuy3HhXpgUigyZ6E-32" target="lsiEjuy3HhXpgUigyZ6E-8" edge="1">
                    <mxGeometry width="50" height="50" relative="1" as="geometry">
                        <mxPoint x="960" y="680" as="sourcePoint"/>
                        <mxPoint x="960" y="120" as="targetPoint"/>
                    </mxGeometry>
                </mxCell>
                <mxCell id="lsiEjuy3HhXpgUigyZ6E-8" value="Authorization Server" style="rounded=0;whiteSpace=wrap;html=1;fontSize=14;" parent="1" vertex="1">
                    <mxGeometry x="900" y="60" width="120" height="60" as="geometry"/>
                </mxCell>
                <mxCell id="lsiEjuy3HhXpgUigyZ6E-9" value="" style="endArrow=classic;html=1;rounded=0;strokeWidth=2;fontSize=14;" parent="1" edge="1">
                    <mxGeometry relative="1" as="geometry">
                        <mxPoint x="120" y="160" as="sourcePoint"/>
                        <mxPoint x="400" y="160" as="targetPoint"/>
                    </mxGeometry>
                </mxCell>
                <mxCell id="lsiEjuy3HhXpgUigyZ6E-10" value="Asks for connection" style="edgeLabel;resizable=0;html=1;align=center;verticalAlign=middle;fontSize=14;" parent="lsiEjuy3HhXpgUigyZ6E-9" connectable="0" vertex="1">
                    <mxGeometry relative="1" as="geometry"/>
                </mxCell>
                <mxCell id="lsiEjuy3HhXpgUigyZ6E-11" value="" style="endArrow=classic;html=1;rounded=0;strokeWidth=3;fontSize=14;fillColor=#d5e8d4;strokeColor=#82b366;" parent="1" edge="1">
                    <mxGeometry relative="1" as="geometry">
                        <mxPoint x="400" y="200" as="sourcePoint"/>
                        <mxPoint x="960" y="200" as="targetPoint"/>
                    </mxGeometry>
                </mxCell>
                <mxCell id="lsiEjuy3HhXpgUigyZ6E-12" value="&lt;div&gt;Asks for&amp;nbsp; redirection URL&lt;/div&gt;&lt;div&gt;sends (&lt;font color=&quot;#00CC00&quot;&gt;H(code_verifier)&lt;/font&gt;, H_function_type)&lt;br&gt;&lt;/div&gt;" style="edgeLabel;resizable=0;html=1;align=center;verticalAlign=middle;fontSize=14;" parent="lsiEjuy3HhXpgUigyZ6E-11" connectable="0" vertex="1">
                    <mxGeometry relative="1" as="geometry">
                        <mxPoint x="-10" y="-10" as="offset"/>
                    </mxGeometry>
                </mxCell>
                <mxCell id="lsiEjuy3HhXpgUigyZ6E-13" value="" style="endArrow=classic;html=1;rounded=0;strokeWidth=2;fontSize=14;fillColor=#d5e8d4;strokeColor=#82b366;" parent="1" edge="1">
                    <mxGeometry relative="1" as="geometry">
                        <mxPoint x="960" y="240" as="sourcePoint"/>
                        <mxPoint x="400" y="240" as="targetPoint"/>
                    </mxGeometry>
                </mxCell>
                <mxCell id="lsiEjuy3HhXpgUigyZ6E-14" value="Replies with Redirect URL &lt;br&gt;&lt;div&gt;(Facebook connection page)&lt;/div&gt;" style="edgeLabel;html=1;align=center;verticalAlign=middle;resizable=0;points=[];fontSize=14;" parent="lsiEjuy3HhXpgUigyZ6E-13" vertex="1" connectable="0">
                    <mxGeometry x="-0.3077" y="1" relative="1" as="geometry">
                        <mxPoint x="44" as="offset"/>
                    </mxGeometry>
                </mxCell>
                <mxCell id="lsiEjuy3HhXpgUigyZ6E-15" value="" style="endArrow=classic;html=1;rounded=0;strokeWidth=2;fontSize=14;" parent="1" edge="1">
                    <mxGeometry relative="1" as="geometry">
                        <mxPoint x="400" y="280" as="sourcePoint"/>
                        <mxPoint x="680" y="280" as="targetPoint"/>
                    </mxGeometry>
                </mxCell>
                <mxCell id="lsiEjuy3HhXpgUigyZ6E-16" value="Opens browser" style="edgeLabel;resizable=0;html=1;align=center;verticalAlign=middle;fontSize=14;" parent="lsiEjuy3HhXpgUigyZ6E-15" connectable="0" vertex="1">
                    <mxGeometry relative="1" as="geometry"/>
                </mxCell>
                <mxCell id="lsiEjuy3HhXpgUigyZ6E-17" value="" style="endArrow=classic;html=1;rounded=0;strokeWidth=2;fontSize=14;" parent="1" edge="1">
                    <mxGeometry relative="1" as="geometry">
                        <mxPoint x="680" y="320" as="sourcePoint"/>
                        <mxPoint x="120" y="320" as="targetPoint"/>
                    </mxGeometry>
                </mxCell>
                <mxCell id="lsiEjuy3HhXpgUigyZ6E-18" value="Shows Facebook Connection page" style="edgeLabel;resizable=0;html=1;align=center;verticalAlign=middle;fontSize=14;" parent="lsiEjuy3HhXpgUigyZ6E-17" connectable="0" vertex="1">
                    <mxGeometry relative="1" as="geometry">
                        <mxPoint x="-130" as="offset"/>
                    </mxGeometry>
                </mxCell>
                <mxCell id="lsiEjuy3HhXpgUigyZ6E-19" value="" style="endArrow=classic;html=1;rounded=0;strokeWidth=2;fontSize=14;" parent="1" edge="1">
                    <mxGeometry relative="1" as="geometry">
                        <mxPoint x="120" y="360" as="sourcePoint"/>
                        <mxPoint x="680" y="360" as="targetPoint"/>
                        <Array as="points">
                            <mxPoint x="430" y="360"/>
                        </Array>
                    </mxGeometry>
                </mxCell>
                <mxCell id="lsiEjuy3HhXpgUigyZ6E-20" value="Enters credentials" style="edgeLabel;resizable=0;html=1;align=center;verticalAlign=middle;fontSize=14;" parent="lsiEjuy3HhXpgUigyZ6E-19" connectable="0" vertex="1">
                    <mxGeometry relative="1" as="geometry">
                        <mxPoint x="120" as="offset"/>
                    </mxGeometry>
                </mxCell>
                <mxCell id="lsiEjuy3HhXpgUigyZ6E-21" value="" style="endArrow=classic;html=1;rounded=0;strokeWidth=2;fontSize=14;fillColor=#d5e8d4;strokeColor=#82b366;" parent="1" edge="1">
                    <mxGeometry relative="1" as="geometry">
                        <mxPoint x="680" y="400" as="sourcePoint"/>
                        <mxPoint x="960" y="400" as="targetPoint"/>
                    </mxGeometry>
                </mxCell>
                <mxCell id="lsiEjuy3HhXpgUigyZ6E-22" value="Sends credentials" style="edgeLabel;resizable=0;html=1;align=center;verticalAlign=middle;fontSize=14;" parent="lsiEjuy3HhXpgUigyZ6E-21" connectable="0" vertex="1">
                    <mxGeometry relative="1" as="geometry"/>
                </mxCell>
                <mxCell id="lsiEjuy3HhXpgUigyZ6E-23" value="" style="endArrow=classic;html=1;rounded=0;strokeWidth=2;fontSize=14;fillColor=#d5e8d4;strokeColor=#82b366;" parent="1" edge="1">
                    <mxGeometry relative="1" as="geometry">
                        <mxPoint x="960" y="440" as="sourcePoint"/>
                        <mxPoint x="680" y="440" as="targetPoint"/>
                    </mxGeometry>
                </mxCell>
                <mxCell id="lsiEjuy3HhXpgUigyZ6E-24" value="&lt;div style=&quot;font-size: 14px;&quot;&gt;Replies with Authorization code&lt;/div&gt;" style="edgeLabel;resizable=0;html=1;align=center;verticalAlign=middle;fontSize=14;" parent="lsiEjuy3HhXpgUigyZ6E-23" connectable="0" vertex="1">
                    <mxGeometry relative="1" as="geometry">
                        <mxPoint as="offset"/>
                    </mxGeometry>
                </mxCell>
                <mxCell id="lsiEjuy3HhXpgUigyZ6E-25" value="" style="endArrow=classic;html=1;rounded=0;strokeWidth=4;fontSize=14;fillColor=#f8cecc;strokeColor=#b85450;" parent="1" edge="1">
                    <mxGeometry relative="1" as="geometry">
                        <mxPoint x="680" y="480" as="sourcePoint"/>
                        <mxPoint x="400" y="480" as="targetPoint"/>
                    </mxGeometry>
                </mxCell>
                <mxCell id="lsiEjuy3HhXpgUigyZ6E-26" value="Transfers Authz code " style="edgeLabel;resizable=0;html=1;align=center;verticalAlign=middle;fontSize=14;" parent="lsiEjuy3HhXpgUigyZ6E-25" connectable="0" vertex="1">
                    <mxGeometry relative="1" as="geometry"/>
                </mxCell>
                <mxCell id="lsiEjuy3HhXpgUigyZ6E-27" value="" style="endArrow=classic;html=1;rounded=0;strokeWidth=2;fontSize=14;fillColor=#d5e8d4;strokeColor=#82b366;" parent="1" edge="1">
                    <mxGeometry relative="1" as="geometry">
                        <mxPoint x="400" y="520" as="sourcePoint"/>
                        <mxPoint x="960" y="520" as="targetPoint"/>
                    </mxGeometry>
                </mxCell>
                <mxCell id="lsiEjuy3HhXpgUigyZ6E-28" value="&lt;div&gt;Authenticates with Authz code&lt;/div&gt;&lt;div&gt;Sends the code_verifier&lt;br&gt; &lt;/div&gt;" style="edgeLabel;resizable=0;html=1;align=center;verticalAlign=middle;fontSize=14;" parent="lsiEjuy3HhXpgUigyZ6E-27" connectable="0" vertex="1">
                    <mxGeometry relative="1" as="geometry">
                        <mxPoint x="120" as="offset"/>
                    </mxGeometry>
                </mxCell>
                <mxCell id="lsiEjuy3HhXpgUigyZ6E-29" value="" style="endArrow=classic;html=1;rounded=0;strokeWidth=2;fontSize=14;fillColor=#d5e8d4;strokeColor=#82b366;" parent="1" edge="1">
                    <mxGeometry relative="1" as="geometry">
                        <mxPoint x="960" y="600" as="sourcePoint"/>
                        <mxPoint x="400" y="600" as="targetPoint"/>
                    </mxGeometry>
                </mxCell>
                <mxCell id="lsiEjuy3HhXpgUigyZ6E-30" value="&lt;div style=&quot;font-size: 14px;&quot;&gt;Replies with Access Token &lt;br style=&quot;font-size: 14px;&quot;&gt;&lt;/div&gt;&lt;div style=&quot;font-size: 14px;&quot;&gt;&amp;amp; optional Refresh Token&lt;/div&gt;" style="edgeLabel;resizable=0;html=1;align=center;verticalAlign=middle;fontSize=14;" parent="lsiEjuy3HhXpgUigyZ6E-29" connectable="0" vertex="1">
                    <mxGeometry relative="1" as="geometry">
                        <mxPoint x="-130" as="offset"/>
                    </mxGeometry>
                </mxCell>
                <mxCell id="lsiEjuy3HhXpgUigyZ6E-32" value="Computes H(code_verifier) and checks eq. with prev sent &lt;font color=&quot;#00CC00&quot;&gt;H(code_verifier)&lt;/font&gt;" style="rounded=0;whiteSpace=wrap;html=1;" parent="1" vertex="1">
                    <mxGeometry x="840" y="550" width="240" height="30" as="geometry"/>
                </mxCell>
                <mxCell id="lsiEjuy3HhXpgUigyZ6E-33" value="" style="endArrow=none;html=1;rounded=0;strokeWidth=3;fontSize=14;" parent="1" target="lsiEjuy3HhXpgUigyZ6E-32" edge="1">
                    <mxGeometry width="50" height="50" relative="1" as="geometry">
                        <mxPoint x="960" y="680" as="sourcePoint"/>
                        <mxPoint x="960" y="120" as="targetPoint"/>
                    </mxGeometry>
                </mxCell>
                <mxCell id="1OZNLUA3OjmIf2Brlhz0-1" value="&lt;div align=&quot;left&quot;&gt;&amp;nbsp;- &lt;b&gt;H&lt;/b&gt; is a cryptographiclly secured hash function, for instance SHA25.&lt;/div&gt;&lt;div align=&quot;left&quot;&gt;&amp;nbsp;- &lt;b&gt;code_verifier&lt;/b&gt; is un random number, only used once.&lt;br&gt;&lt;/div&gt;" style="rounded=0;whiteSpace=wrap;html=1;" parent="1" vertex="1">
                    <mxGeometry x="970" y="170" width="190" height="90" as="geometry"/>
                </mxCell>
                <mxCell id="1OZNLUA3OjmIf2Brlhz0-4" value="" style="endArrow=none;html=1;rounded=0;fillColor=#f8cecc;strokeColor=#b85450;strokeWidth=4;" parent="1" edge="1">
                    <mxGeometry width="50" height="50" relative="1" as="geometry">
                        <mxPoint x="120" y="720" as="sourcePoint"/>
                        <mxPoint x="360" y="720" as="targetPoint"/>
                    </mxGeometry>
                </mxCell>
                <mxCell id="1OZNLUA3OjmIf2Brlhz0-5" value="&lt;pre class=&quot;newpage&quot;&gt;&lt;br&gt;&lt;/pre&gt;" style="edgeLabel;html=1;align=center;verticalAlign=middle;resizable=0;points=[];" parent="1OZNLUA3OjmIf2Brlhz0-4" vertex="1" connectable="0">
                    <mxGeometry x="-0.2515" y="1" relative="1" as="geometry">
                        <mxPoint as="offset"/>
                    </mxGeometry>
                </mxCell>
                <mxCell id="1OZNLUA3OjmIf2Brlhz0-6" value="Unsercure communication" style="edgeLabel;html=1;align=center;verticalAlign=middle;resizable=0;points=[];" parent="1OZNLUA3OjmIf2Brlhz0-4" vertex="1" connectable="0">
                    <mxGeometry x="0.0818" y="-2" relative="1" as="geometry">
                        <mxPoint x="-9" y="-2" as="offset"/>
                    </mxGeometry>
                </mxCell>
                <mxCell id="1OZNLUA3OjmIf2Brlhz0-7" value="" style="endArrow=none;html=1;rounded=0;fillColor=#d5e8d4;strokeColor=#82b366;strokeWidth=4;" parent="1" edge="1">
                    <mxGeometry width="50" height="50" relative="1" as="geometry">
                        <mxPoint x="120" y="760" as="sourcePoint"/>
                        <mxPoint x="360" y="760" as="targetPoint"/>
                    </mxGeometry>
                </mxCell>
                <mxCell id="1OZNLUA3OjmIf2Brlhz0-8" value="&lt;pre class=&quot;newpage&quot;&gt;&lt;br&gt;&lt;/pre&gt;" style="edgeLabel;html=1;align=center;verticalAlign=middle;resizable=0;points=[];" parent="1OZNLUA3OjmIf2Brlhz0-7" vertex="1" connectable="0">
                    <mxGeometry x="-0.2515" y="1" relative="1" as="geometry">
                        <mxPoint as="offset"/>
                    </mxGeometry>
                </mxCell>
                <mxCell id="1OZNLUA3OjmIf2Brlhz0-9" value="Protected with TLS" style="edgeLabel;html=1;align=center;verticalAlign=middle;resizable=0;points=[];" parent="1OZNLUA3OjmIf2Brlhz0-7" vertex="1" connectable="0">
                    <mxGeometry x="0.0818" y="-2" relative="1" as="geometry">
                        <mxPoint x="-9" y="-2" as="offset"/>
                    </mxGeometry>
                </mxCell>
                <mxCell id="1OZNLUA3OjmIf2Brlhz0-10" value="If not eq., authorization is refused" style="text;html=1;strokeColor=none;fillColor=none;align=center;verticalAlign=middle;whiteSpace=wrap;rounded=0;" parent="1" vertex="1">
                    <mxGeometry x="1080" y="470" width="60" height="50" as="geometry"/>
                </mxCell>
                <mxCell id="1OZNLUA3OjmIf2Brlhz0-12" value="" style="endArrow=none;dashed=1;html=1;dashPattern=1 3;strokeWidth=2;rounded=0;exitX=1;exitY=0.5;exitDx=0;exitDy=0;entryX=0.5;entryY=1;entryDx=0;entryDy=0;" parent="1" source="lsiEjuy3HhXpgUigyZ6E-32" target="1OZNLUA3OjmIf2Brlhz0-10" edge="1">
                    <mxGeometry width="50" height="50" relative="1" as="geometry">
                        <mxPoint x="1090" y="560" as="sourcePoint"/>
                        <mxPoint x="1120" y="520" as="targetPoint"/>
                    </mxGeometry>
                </mxCell>
            </root>
        </mxGraphModel>
    </diagram>
</mxfile>